<?xml version="1.0" encoding="UTF-8"?>
<svg xmlns="http://www.w3.org/2000/svg" style="display: none;">
  <symbol id="eldritch-logo" viewBox="0 0 896 896">
    <path 
      d="M 648.385 159.161 C 625.723 176.137, 611.683 204.182, 615.012 225.826 C 617.144 239.683, 626.641 253.314, 636.149 256.163 C 639.504 257.168, 640.145 257.854, 641.053 261.410 C 643.820 272.255, 648.300 280.591, 656.417 290 C 666.400 301.571, 669.269 310.124, 666.435 319.872 C 665.170 324.223, 663.585 326.591, 658.673 331.469 C 655.278 334.840, 650.475 338.590, 648 339.802 L 643.500 342.006 642.902 334.217 C 641.847 320.491, 637.493 310.541, 629.109 302.699 C 623.316 297.280, 618.112 294.500, 609.753 292.358 C 599.973 289.853, 590.208 291.327, 575.635 297.511 C 574.056 298.181, 573.875 297.970, 574.455 296.141 C 575.480 292.911, 573.276 273.457, 570.921 264.952 C 568.172 255.024, 562.317 242.733, 555.948 233.519 C 549.613 224.355, 534.104 209.321, 524.731 203.258 C 503.129 189.283, 476.490 181.976, 452 183.307 C 433.867 184.292, 421.431 187.734, 404 196.591 C 376.759 210.432, 356.838 234.606, 351.954 259.750 C 351.286 263.188, 350.385 266, 349.951 266 C 349.517 266, 346.327 265.274, 342.862 264.386 C 333.413 261.965, 321.933 262.819, 314.405 266.503 C 298.505 274.282, 290.305 290.341, 291.235 311.882 L 291.684 322.264 281.592 321.576 C 269.792 320.772, 264.219 319.559, 257.937 316.429 C 253.005 313.972, 246.493 307.427, 244.955 303.383 C 243.106 298.519, 243.890 290.408, 247.055 281.663 C 250.064 273.345, 250.181 273.191, 255.047 271.169 C 267.490 265.998, 282.746 252.334, 287.985 241.669 C 298.224 220.824, 294.307 196.635, 277.552 177.230 C 271.341 170.038, 263.829 163.534, 258 160.304 C 253.983 158.078, 253.822 158.052, 256.500 160.059 C 258.150 161.296, 262.894 165.746, 267.042 169.947 C 279.256 182.318, 285.436 197.078, 285.276 213.500 C 285.137 227.870, 280.080 241.293, 270.175 253.588 C 266.224 258.492, 254.982 267.847, 252.896 267.966 C 252.565 267.985, 252.932 265.637, 253.713 262.750 C 258.176 246.249, 249.443 229.861, 231.695 221.432 C 213.412 212.750, 193.432 213.385, 180.057 223.074 C 175.842 226.127, 170 234.154, 170 236.892 C 170 237.717, 171.344 236.272, 172.987 233.682 C 184.584 215.395, 221.588 215.024, 238.428 233.026 C 243.978 238.960, 246 243.684, 246 250.721 C 246 260.380, 241.487 266.678, 226.130 278.450 C 209.715 291.031, 204.842 299.154, 204.198 315 C 203.662 328.217, 205.894 334.050, 214.904 342.970 C 218.532 346.561, 222.400 350.019, 223.500 350.653 C 225.469 351.789, 225.471 351.858, 223.630 355.153 C 218.900 363.617, 216.127 369.934, 214.919 375 C 212.966 383.190, 213.369 397.039, 215.862 407.329 C 217.038 412.185, 218 416.297, 218 416.467 C 218 416.638, 212.262 414.815, 205.250 412.417 C 177.459 402.914, 155.866 402.752, 137.501 411.909 C 127.466 416.913, 120.443 423.060, 114.434 432.099 C 107.446 442.611, 104.826 451.086, 104.230 465.110 C 103.245 488.306, 110.244 505.891, 126.317 520.606 C 140.683 533.757, 159.636 541.523, 187.309 545.595 C 199.774 547.430, 230.504 547.072, 239.178 544.991 C 243.692 543.908, 244.111 544.009, 251.178 547.871 C 267.014 556.528, 284.258 560.290, 308.500 560.377 C 321.088 560.422, 325.749 560.055, 330.357 558.658 C 333.579 557.681, 336.354 557.021, 336.525 557.192 C 337.343 558.010, 334.800 567.460, 332.587 571.828 C 327.671 581.529, 318.974 586.365, 306.500 586.333 C 300.159 586.317, 294.767 585.318, 280.500 581.518 C 263.723 577.049, 261.651 576.719, 250 576.658 C 236.641 576.588, 230.093 577.843, 218.502 582.697 C 205.261 588.241, 192.651 598.892, 188.034 608.431 C 185.811 613.021, 183.692 623.308, 185.155 622.404 C 185.620 622.117, 186.010 621.121, 186.022 620.191 C 186.063 617.011, 189.846 610.123, 194.062 605.548 C 199.205 599.969, 207.041 595.142, 217 591.416 C 224.036 588.784, 225.489 588.607, 240.500 588.555 C 259.766 588.489, 265.395 589.772, 288.348 599.460 C 306.728 607.219, 314.029 609.182, 324.507 609.182 C 342.689 609.182, 359.567 598.791, 365.009 584.247 C 366.122 581.271, 367.452 574.791, 367.963 569.847 C 368.950 560.308, 371.271 554.872, 376.400 550.080 C 378.796 547.842, 378.709 548.210, 375.245 554.957 C 371.924 561.427, 371.462 563.231, 371.165 570.877 C 370.680 583.350, 372.404 587.616, 383.924 602.446 C 387.602 607.182, 388.409 609.014, 388.715 613.321 C 389.171 619.726, 386.486 624.883, 380.200 629.678 C 370.774 636.867, 358.476 637.843, 341.393 632.757 C 332.136 630.001, 328.923 629.513, 320 629.507 C 310.253 629.500, 309.015 629.730, 302.741 632.701 C 288.716 639.345, 278.378 653.424, 277.255 667.409 C 276.700 674.322, 278.572 681.570, 281.549 684.041 C 282.537 684.861, 282.325 683.728, 280.877 680.455 C 275.545 668.402, 284.806 650.706, 300.646 642.680 C 312.839 636.501, 323.193 637.367, 337.500 645.762 C 350.384 653.322, 356.087 655.832, 363.042 657.006 C 380.593 659.969, 401.088 649.701, 408.745 634.109 C 411.089 629.337, 411.488 627.306, 411.419 620.500 C 411.346 613.364, 410.882 611.474, 407.125 603 C 401.269 589.790, 400.581 586.185, 402.493 578.720 C 404.271 571.781, 406.804 567.292, 412.352 561.250 C 417.183 555.989, 418.650 555.806, 416.112 560.780 C 412.137 568.572, 410.761 575.702, 411.172 586.380 C 411.540 595.913, 411.787 596.906, 415.430 603.500 C 423.938 618.898, 424.324 619.875, 424.267 625.890 C 424.210 631.911, 421.718 638.125, 416 646.500 C 405.317 662.148, 402.890 676.925, 408.809 690.300 C 413.258 700.353, 426.422 712.667, 440 719.478 C 449.481 724.233, 452.738 724.773, 444.266 720.184 C 430.608 712.788, 422.667 704.975, 416.714 693.075 C 412.768 685.187, 412.505 684.136, 412.574 676.575 C 412.670 666.180, 414.523 661.532, 424.300 647.164 C 435.399 630.853, 436.700 625.229, 432.856 610.160 C 430.767 601.970, 430.757 601.610, 432.464 596.127 C 435.992 584.790, 440.104 575.206, 443.472 570.468 C 446.667 565.975, 454.845 558.511, 455.670 559.336 C 455.867 559.534, 454.785 562.351, 453.264 565.598 C 449.575 573.475, 449.304 586.208, 452.690 592.568 C 455.278 597.430, 461.915 603.649, 466.610 605.611 C 468.475 606.390, 470 607.305, 470 607.645 C 470 608.837, 465.546 615.591, 457.796 626.152 C 453.496 632.011, 448.746 639.436, 447.239 642.652 C 444.774 647.915, 444.500 649.600, 444.500 659.500 C 444.500 669.568, 444.741 670.992, 447.348 676.301 C 450.814 683.359, 458.161 690.918, 464.669 694.121 C 468.417 695.966, 471.518 696.574, 478.500 696.834 C 488.296 697.199, 492.565 695.999, 511.881 687.456 C 526.186 681.129, 536.495 681.577, 543.720 688.841 C 547.294 692.434, 547.319 692.443, 545.142 689.293 C 537.905 678.824, 525.433 677.375, 503.168 684.416 C 488.976 688.905, 480.192 689.250, 472.500 685.623 C 466.542 682.813, 463.826 680.048, 461.084 674 C 456.843 664.644, 459.347 654.089, 467.344 647.616 C 469.630 645.765, 477.125 641.531, 484 638.205 C 498.645 631.121, 503.112 627.667, 506.704 620.649 C 508.791 616.573, 509.463 613.521, 509.930 606 L 510.520 596.500 512.803 603.135 C 518.152 618.679, 529.893 628.312, 546.914 631.123 C 556.219 632.659, 565.590 631.071, 575.003 626.362 C 581.861 622.931, 586.376 619.365, 599.500 607.012 C 612.074 595.176, 624.926 587.444, 636.128 584.976 C 643.902 583.263, 657.075 584.173, 664.202 586.914 C 676.405 591.609, 684.253 602.400, 684.247 614.476 C 684.242 623.617, 681.024 630.110, 674.500 634.139 C 672.684 635.261, 672.132 635.994, 673.102 635.996 C 676.385 636.004, 681.545 631.410, 684.250 626.070 C 689.820 615.075, 686.975 600.299, 677.440 590.693 C 659.521 572.641, 629.820 573.234, 596.653 592.305 C 589.969 596.148, 581.707 600.610, 578.294 602.220 C 561.349 610.213, 539.730 604.441, 537.548 591.341 C 536.616 585.748, 538.156 583.072, 547.262 574.465 C 551.355 570.595, 555.894 565.544, 557.349 563.239 C 559.814 559.334, 560.216 559.098, 563.247 559.774 C 565.036 560.173, 575.950 560.477, 587.500 560.450 C 605.089 560.408, 610.043 560.056, 618 558.285 C 629.133 555.807, 639.339 552.124, 646.927 547.844 L 652.353 544.784 660.994 545.892 C 673.287 547.468, 698.711 547.258, 710.500 545.482 C 762.909 537.587, 793.065 509.470, 793.065 468.500 C 793.065 438.053, 775.510 414.736, 747 407.316 C 733.011 403.675, 712.074 405.353, 693.758 411.582 C 689.855 412.910, 686.571 413.884, 686.458 413.748 C 686.346 413.612, 686.547 411.475, 686.906 409 C 688.710 396.529, 682.698 383.423, 672.405 377.392 C 669.982 375.972, 668 374.664, 668 374.485 C 668 374.307, 670.362 373.393, 673.250 372.455 C 685.491 368.476, 696.835 358.853, 701.820 348.218 C 704.140 343.268, 704.499 341.224, 704.493 333 C 704.486 324.407, 704.181 322.857, 701.300 316.759 C 697.560 308.848, 691.752 302.738, 680.363 294.738 C 666.559 285.041, 664.072 280.866, 667.630 273.368 C 671.768 264.646, 683.057 259, 696.356 259 C 718.553 259, 735.214 271.346, 737.920 289.800 L 738.756 295.500 738.878 288.410 C 738.982 282.378, 738.549 280.418, 735.982 275.280 C 727.216 257.737, 702.878 247.974, 681.680 253.495 C 667.611 257.160, 659.784 264.601, 658.109 275.903 L 657.428 280.500 654.329 277.153 C 652.624 275.311, 649.947 271.261, 648.380 268.153 C 645.745 262.924, 645.530 261.637, 645.516 251 C 645.498 237.695, 647.611 230.169, 653.966 220.898 C 663.797 206.559, 681.207 202.262, 691.265 211.693 C 693.904 214.167, 694.120 214.231, 693.087 212.236 C 692.442 210.991, 690.054 208.741, 687.780 207.236 C 684.189 204.859, 682.651 204.500, 676.073 204.500 C 666.810 204.500, 661.130 206.965, 654.028 214.067 C 646.307 221.788, 642.317 231.256, 640.465 246.244 L 639.879 250.989 637.088 249.546 C 627.353 244.511, 618.972 225.056, 620.516 211.074 C 622.469 193.388, 631.295 176.437, 645.442 163.203 C 652.373 156.720, 653.247 155.519, 648.385 159.161 M 441 187.696 C 425.777 190.273, 407.100 197.821, 393.914 206.724 C 372.915 220.903, 357.788 243.119, 354.500 264.610 L 353.871 268.720 361.936 275.446 C 366.371 279.146, 370 282.341, 370 282.546 C 370 282.751, 366.063 280.288, 361.250 277.073 C 349.023 268.904, 342.714 266.693, 331.500 266.646 C 321.519 266.605, 316.107 268.372, 309.023 273.982 C 297.017 283.491, 291.361 305.238, 296.420 322.440 C 298.235 328.614, 303.852 340.520, 307.158 345.200 L 309.065 347.900 301.447 344.380 C 289.373 338.801, 279.353 336.661, 268.042 337.245 C 247.067 338.327, 230.993 348.280, 222.635 365.363 C 216.085 378.747, 215.448 392.133, 220.448 411.263 C 221.852 416.632, 223 421.193, 223 421.398 C 223 421.603, 217.713 419.993, 211.250 417.821 C 193.888 411.986, 184.762 409.985, 172.500 409.324 C 157.862 408.535, 149.070 410.080, 138.724 415.258 C 119.753 424.753, 107 446.323, 107 468.913 C 107 474.861, 110.931 486.587, 114.821 492.240 C 131.156 515.982, 163.402 522.843, 205.577 511.551 C 222.964 506.896, 222.352 507.186, 220.553 504.440 C 218.318 501.029, 218.640 500.273, 221.033 503.315 C 224.060 507.163, 236.694 515.271, 245.102 518.761 C 259.388 524.691, 278.545 527.062, 296.052 525.066 C 306.482 523.878, 333.380 517.937, 336.926 516.040 C 338.369 515.267, 340.533 515.838, 346.348 518.525 C 378.104 533.197, 423.399 527.214, 448.230 505.068 C 451.702 501.971, 453.579 500.916, 454.461 501.568 C 455.155 502.081, 458.373 504.642, 461.611 507.260 C 473.598 516.949, 491.938 523.895, 511.151 526.025 C 531.815 528.315, 553.888 523.822, 570.500 513.946 L 575.500 510.973 572.063 513.966 C 570.172 515.612, 568.844 517.177, 569.112 517.445 C 569.379 517.712, 574.896 519.297, 581.371 520.967 C 618.572 530.559, 651.741 525.585, 674.869 506.948 C 679.206 503.454, 680.587 502.701, 679.435 504.459 C 678.094 506.505, 678.039 507.067, 679.142 507.443 C 686.329 509.893, 703.355 514.238, 711.003 515.574 C 721.993 517.494, 739.023 517.029, 748 514.563 C 765.483 509.762, 780.862 497.091, 786.947 482.472 C 790.124 474.841, 790.240 474.106, 789.710 465.003 C 788.992 452.689, 786.171 443.919, 779.926 434.581 C 773.758 425.359, 767.701 419.989, 758.309 415.417 C 747.744 410.275, 738.955 408.691, 724.500 409.324 C 710.423 409.941, 697.129 413.032, 685.558 418.378 C 681.321 420.335, 678.023 421.614, 678.228 421.219 C 682.675 412.672, 683.447 410.061, 683.466 403.500 C 683.483 397.594, 683.024 395.663, 680.527 391.144 C 675.359 381.793, 666.724 376.720, 653.801 375.444 C 646.261 374.699, 635.395 376.757, 627.301 380.463 C 624.252 381.858, 621.600 383, 621.405 383 C 621.211 383, 623.011 381.042, 625.405 378.648 C 633.788 370.265, 639.368 354.589, 639.340 339.500 C 639.292 314.138, 625.112 296.605, 603.528 295.220 C 591.198 294.429, 579.949 298.025, 569.072 306.236 L 563.644 310.334 566.184 306.917 C 571.320 300.007, 572.249 291.396, 569.532 275.881 C 565.927 255.295, 557.339 238.498, 542.572 223.149 C 524.883 204.763, 502.632 192.911, 477.615 188.548 C 469.441 187.123, 447.413 186.610, 441 187.696 M 356.955 342.476 C 344.239 344.897, 344.407 345.499, 357.810 345.522 C 375.381 345.552, 384.902 348.315, 401.133 358.092 C 409.947 363.402, 413.741 363.995, 417.575 360.663 C 419.961 358.589, 420.304 357.788, 419.435 356.311 C 417.771 353.482, 402.833 346.131, 394.327 343.956 C 383.984 341.310, 366.677 340.625, 356.955 342.476 M 529.902 342.095 C 519.172 342.989, 510.523 345.326, 501.500 349.768 C 490.355 355.255, 487.864 358.390, 492.223 361.443 C 496.159 364.200, 500.734 363.373, 508.578 358.484 C 522.852 349.587, 533.248 346.268, 550.500 345.100 L 560.500 344.423 555 343.286 C 546.999 341.633, 539.639 341.283, 529.902 342.095 M 349.500 370.508 C 339.443 374.242, 338.744 374.338, 334.516 372.571 C 332.413 371.693, 330.496 371.171, 330.255 371.412 C 329.549 372.117, 337.238 376.814, 340.331 377.568 C 341.888 377.947, 343.301 378.762, 343.471 379.379 C 346.549 390.551, 352.565 398.034, 362.330 402.842 C 375.845 409.495, 391.588 409.385, 405.559 402.539 C 418.474 396.210, 418.883 393.143, 407.990 384.324 C 395.703 374.378, 382.318 369.310, 366 368.424 C 357.492 367.963, 355.769 368.180, 349.500 370.508 M 532.405 369.485 C 520.241 372.132, 505.785 380.068, 498.557 388.068 C 493.967 393.149, 494.195 395.417, 499.718 399.621 C 516.017 412.029, 545.570 409.954, 558.927 395.463 C 563.342 390.673, 567 384.124, 567 381.008 C 567 379.869, 567.788 378.688, 568.750 378.384 C 573.477 376.889, 578.109 374.537, 579.625 372.861 C 581.617 370.660, 580.490 370.505, 577 372.500 C 573.730 374.369, 568.981 374.375, 566.323 372.513 C 560.345 368.327, 544.309 366.895, 532.405 369.485 M 354.203 376.131 C 349.588 377.462, 349.220 379.492, 352.470 385.699 C 356.073 392.581, 363.602 399.333, 370.586 401.946 C 377.332 404.470, 388.333 404.672, 396.068 402.415 C 402.787 400.453, 410 396.378, 410 394.543 C 410 393.788, 407.885 391.308, 405.299 389.032 L 400.598 384.894 398.852 388.297 C 396.442 392.994, 390.725 397.773, 386.587 398.550 C 376.706 400.403, 365.086 389.735, 365.022 378.750 C 365 375.071, 364.929 375.002, 361.250 375.090 C 359.188 375.140, 356.016 375.608, 354.203 376.131 M 545.655 379.503 C 544.327 389.186, 537.380 397.084, 528.935 398.511 C 522.209 399.647, 513.244 393.839, 510.707 386.702 C 510.176 385.207, 505.511 388.435, 502.635 392.287 C 500.711 394.863, 500.706 395.017, 502.459 396.955 C 503.456 398.057, 506.686 399.861, 509.637 400.965 C 524.584 406.558, 538.256 404.956, 549.858 396.253 C 553.721 393.355, 561 382.602, 561 379.794 C 561 377.416, 555.541 375, 550.168 375 C 546.308 375, 546.266 375.042, 545.655 379.503 M 372.200 377.200 C 370.551 378.849, 370.692 385.504, 372.449 388.901 C 376.291 396.330, 387.936 397.710, 392.955 391.331 C 396.958 386.241, 394.407 380, 388.323 380 C 386.563 380, 385.952 380.741, 385.434 383.500 C 385.073 385.425, 384.410 387, 383.960 387 C 382.069 387, 380 383.623, 380 380.536 C 380 377.196, 378.713 376, 375.118 376 C 374.173 376, 372.860 376.540, 372.200 377.200 M 531.667 376.667 C 531.300 377.033, 531 378.968, 531 380.967 C 531 384.371, 529.611 387, 527.813 387 C 527.381 387, 526.369 385.425, 525.564 383.500 C 523.722 379.090, 520.140 378.735, 517.055 382.657 C 514.511 385.892, 515.060 388.473, 519.094 392.250 C 524.601 397.406, 535.143 395.433, 538.365 388.643 C 540.038 385.119, 540.476 380.403, 539.393 377.582 C 538.783 375.992, 533.023 375.310, 531.667 376.667 M 422.601 439.541 C 420.706 441.437, 421.234 442.874, 423.226 441.240 C 424.140 440.490, 427.041 441.069, 433.500 443.289 C 441.711 446.111, 443.596 446.380, 455 446.357 C 465.894 446.334, 468.576 445.977, 475.877 443.582 C 480.484 442.070, 485.096 441.053, 486.127 441.323 C 488.808 442.024, 488.444 440.160, 485.652 438.887 C 483.851 438.067, 482.162 438.222, 478.402 439.551 C 471.183 442.104, 447.086 442.737, 436.500 440.652 C 432.100 439.785, 427.555 438.799, 426.399 438.460 C 425.080 438.074, 423.666 438.476, 422.601 439.541 M 483.398 558.391 C 476.006 564.718, 471.072 576.838, 472.989 583.958 C 473.575 586.135, 474.438 588.153, 474.907 588.443 C 475.377 588.733, 476.763 584.632, 477.988 579.331 C 479.272 573.771, 481.824 566.583, 484.017 562.346 C 486.107 558.306, 487.715 555, 487.589 555 C 487.463 555, 485.577 556.526, 483.398 558.391"
      stroke="none"
      fill="currentColor"
      fill-rule="evenodd"
    />
  </symbol>
</svg>